{"title":"The Pact 2012 HDRip XviD Feel-Free","uid":7307320,"size":1092557282,"categoryP":"video","categoryS":"movies","magnet":"?xt=urn:btih:0cc65de070dd55394585d89c6c2f14d644a89018&amp;dn=The+Pact+2012+HDRip+XviD+Feel-Free&amp;tr=udp%3A%2F%2Ftracker.openbittorrent.com%3A80&amp;tr=udp%3A%2F%2Fopen.demonii.com%3A1337&amp;tr=udp%3A%2F%2Ftracker.coppersurfer.tk%3A6969&amp;tr=udp%3A%2F%2Fexodus.desync.com%3A6969","seeders":1,"leechers":0,"uploader":null,"files":9,"time":1338237386,"description":"Genre: Horror | Mystery | Thriller\n Language:English\n IMDb:http://www.imdb.com/title/tt2040560/\n Source:AXED Thanks!\n Encoder:Tony\n \nFormat : AVI\n Format/Info : Audio Video Interleave\n File size : 1.02 GiB\n Duration : 1h 29mn\n Overall bit rate : 1 632 Kbps\n \nVideo\n ID : 0\n Format : MPEG-4 Visual\n Format profile : Advanced Simple@L5\n Format settings, BVOP : 2\n Format settings, QPel : No\n Format settings, GMC : No warppoints\n Format settings, Matrix : Default (H.263)\n Muxing mode : Packed bitstream\n Codec ID : XVID\n Codec ID/Hint : XviD\n Duration : 1h 29mn\n Bit rate : 1 239 Kbps\n Width : 720 pixels\n Height : 384 pixels\n Display aspect ratio : 1.85:1\n Frame rate : 23.976 fps\n Color space : YUV\n Chroma subsampling : 4:2:0\n Bit depth : 8 bits\n Scan type : Progressive\n Compression mode : Lossy\n Bits/(Pixel*Frame) : 0.187\n Stream size : 789 MiB (76%)\n Writing library : XviD 64\n \nAudio\n ID : 1\n Format : AC-3\n Format/Info : Audio Coding 3\n Mode extension : CM (complete main)\n Format settings, Endianness : Big\n Codec ID : 2000\n Duration : 1h 29mn\n Bit rate mode : Constant\n Bit rate : 384 Kbps\n Channel(s) : 6 channels\n Channel positions : Front: L C R, Side: L R, LFE\n Sampling rate : 48.0 KHz\n Bit depth : 16 bits\n Compression mode : Lossy\n Stream size : 245 MiB (24%)\n Alignment : Split accross interleaves\n Interleave, duration : 42 ms (1.00 video frame)\n Interleave, preload duration : 500 ms\n \n\nPlot:\n As a woman struggles to come to grips with her past in the wake of her mother's death, an unsettling presence emerges in her childhood home.\n \n","torrent":{"xt":"urn:btih:0cc65de070dd55394585d89c6c2f14d644a89018","amp;dn":"The+Pact+2012+HDRip+XviD+Feel-Free","amp;tr":["udp%3A%2F%2Ftracker.openbittorrent.com%3A80","udp%3A%2F%2Fopen.demonii.com%3A1337","udp%3A%2F%2Ftracker.coppersurfer.tk%3A6969","udp%3A%2F%2Fexodus.desync.com%3A6969"],"infoHash":"0cc65de070dd55394585d89c6c2f14d644a89018","infoHashBuffer":{"type":"Buffer","data":[12,198,93,224,112,221,85,57,69,133,216,156,108,47,20,214,68,168,144,24]},"announce":[],"urlList":[]}}